<svg version="1.2" xmlns="http://www.w3.org/2000/svg" viewBox="0 0 79 78" width="79" height="78"><style>.a{fill:#fff}.b{fill:#c7175f}</style><path class="a" d="m1 15.6c0-8.6 6.9-15.6 15.5-15.6h46.7c8.6 0 15.5 7 15.5 15.6v46.6c0 8.6-6.9 15.6-15.5 15.6h-46.7c-8.6 0-15.5-7-15.5-15.6z"/><path fill-rule="evenodd" class="b" d="m63.8 33.6c0.4 0.7 0.5 1.5 0.2 2.3-0.3 0.8-0.8 1.4-1.5 1.7l-5 2.5-10.5 10.4q-0.3 0.2-0.7 0.3-0.3 0.1-0.7 0l-12.2-3q-0.3 0-0.5-0.2l-10.5-7.4-5.2-2.6q-0.5-0.2-0.9-0.7-0.4-0.4-0.6-1-0.2-0.6-0.1-1.2 0-0.6 0.3-1.1l4.8-9.6q0.3-0.5 0.8-0.9 0.4-0.4 1-0.6 0.6-0.2 1.2-0.1 0.6 0 1.1 0.3l4.7 2.3 10-2.6q0.4-0.1 0.8 0l9.9 2.6 4.7-2.3q0.6-0.3 1.2-0.3 0.6-0.1 1.1 0.1 0.6 0.2 1.1 0.6 0.4 0.4 0.7 0.9l4.8 9.6zm-9.1 5l-5.1-10.2h-6.1l-8.2 7.8c2.4 1.6 6.2 2 9.6-1.4 0.2-0.3 0.6-0.4 1-0.4 0.3-0.1 0.7 0.1 1 0.3l6.5 5.2zm-36.1-3.7l3.9 2 4.8-9.6-3.9-2zm32.7 7.1l-5.2-4.2c-3.8 3-8.5 3.4-12.4 1q-0.6-0.4-0.9-1-0.4-0.6-0.5-1.2 0-0.7 0.2-1.4 0.2-0.6 0.7-1.1l8.6-8.2-1.9-0.5-9.4 2.5-5.4 10.5 9.4 6.6 11 2.7zm9.9-7l-4.9-9.6-3.8 1.9 4.8 9.6zm-20.5 19.3q-0.2 0.5-0.6 0.8-0.4 0.3-0.9 0.3-0.2 0-0.4 0l-7.9-2q-0.3 0-0.5-0.2l-5-3.5c-0.3-0.3-0.5-0.6-0.6-1 0-0.4 0.1-0.8 0.3-1.1 0.2-0.3 0.6-0.5 0.9-0.6 0.4-0.1 0.8 0 1.2 0.2l4.7 3.4 7.7 1.9c0.4 0.1 0.7 0.3 0.9 0.7 0.2 0.3 0.3 0.7 0.2 1.1z"/></svg>