<svg width="79" height="78" viewBox="0 0 79 78" fill="none" xmlns="http://www.w3.org/2000/svg">
<rect x="0.984131" width="77.7532" height="77.7532" rx="15.5506" fill="#C7175F"/>
<path d="M63.84 33.6024L58.9951 24.0146C58.8166 23.6617 58.5696 23.3471 58.2681 23.0886C57.9667 22.8301 57.6167 22.6329 57.2382 22.5083C56.8597 22.3836 56.4601 22.3339 56.0621 22.362C55.6642 22.3901 55.2758 22.4954 54.919 22.672L50.1974 25.0061L40.2512 22.4035C39.996 22.3378 39.728 22.3378 39.4728 22.4035L29.5266 25.0061L24.805 22.672C24.4483 22.4954 24.0598 22.3901 23.6619 22.362C23.264 22.3339 22.8643 22.3836 22.4858 22.5083C22.1073 22.6329 21.7573 22.8301 21.4559 23.0886C21.1545 23.3471 20.9074 23.6617 20.7289 24.0146L15.884 33.6005C15.7054 33.9534 15.5989 34.3376 15.5705 34.7312C15.5421 35.1248 15.5924 35.52 15.7184 35.8944C15.8445 36.2688 16.0438 36.6149 16.3052 36.9131C16.5665 37.2112 16.8846 37.4555 17.2414 37.6321L22.3674 40.1689L32.9021 47.6105C33.0573 47.7197 33.2318 47.7993 33.4166 47.8452L45.567 50.8496C45.8215 50.9127 46.0881 50.9095 46.341 50.8404C46.5938 50.7713 46.8243 50.6386 47.0099 50.4552L57.4649 40.1126L62.4807 37.6321C63.2008 37.2755 63.7483 36.6508 64.0028 35.8952C64.2574 35.1396 64.1981 34.3149 63.8381 33.6024H63.84ZM53.4192 39.8685L46.8865 34.6934C46.5938 34.4616 46.2248 34.345 45.8505 34.3662C45.4761 34.3873 45.1229 34.5447 44.8589 34.8079C41.4776 38.1766 37.7091 37.7504 35.3056 36.2482L43.5147 28.3616H49.5538L54.7197 38.5785L53.4192 39.8685ZM23.4457 25.3572L27.3319 27.2763L22.4775 36.8622L18.5988 34.945L23.4457 25.3572ZM45.4683 47.7269L34.4361 45.0004L25.0955 38.402L30.4113 27.8865L39.862 25.4098L41.7225 25.8961L33.1793 34.0982L33.1641 34.1151C32.8425 34.4331 32.5972 34.8186 32.4464 35.2429C32.2955 35.6673 32.2429 36.1198 32.2925 36.5669C32.3421 37.0141 32.4925 37.4445 32.7328 37.8265C32.973 38.2084 33.2969 38.5321 33.6805 38.7738C37.5838 41.2392 42.294 40.8393 46.0037 37.8349L51.253 42.0054L45.4683 47.7269ZM57.239 36.8603L52.394 27.2838L56.2783 25.3572L61.1252 34.945L57.239 36.8603ZM40.5796 54.2614C40.4976 54.5861 40.3083 54.8744 40.0417 55.0805C39.7752 55.2867 39.4467 55.3989 39.1083 55.3994C38.9835 55.3992 38.8592 55.3841 38.7381 55.3543L30.8271 53.3977C30.642 53.3525 30.4674 53.2729 30.3126 53.163L25.31 49.629C25.0024 49.3902 24.7999 49.0431 24.7445 48.6602C24.6891 48.2773 24.7852 47.8881 25.0127 47.5735C25.2402 47.2589 25.5817 47.0432 25.966 46.9714C26.3503 46.8996 26.7477 46.9772 27.0756 47.188L31.8428 50.5566L39.4823 52.4419C39.873 52.5386 40.2089 52.7848 40.4161 53.1263C40.6233 53.4679 40.6849 53.8769 40.5872 54.2633L40.5796 54.2614Z" fill="white"/>
</svg>
