<svg width="40" height="40" viewBox="0 0 40 40" fill="none" xmlns="http://www.w3.org/2000/svg">
<rect width="40" height="40" rx="20" fill="#C7175F"/>
<path d="M17.7922 22.6712C17.7922 22.8736 17.7147 23.0677 17.5767 23.2109C17.4387 23.354 17.2515 23.4344 17.0563 23.4344H13.3766C13.1815 23.4344 12.9943 23.354 12.8563 23.2109C12.7182 23.0677 12.6407 22.8736 12.6407 22.6712C12.6407 22.4688 12.7182 22.2747 12.8563 22.1316C12.9943 21.9884 13.1815 21.908 13.3766 21.908H17.0563C17.2515 21.908 17.4387 21.9884 17.5767 22.1316C17.7147 22.2747 17.7922 22.4688 17.7922 22.6712ZM23.6797 11.2234H25.8875C26.0826 11.2234 26.2698 11.143 26.4078 10.9999C26.5459 10.8567 26.6234 10.6626 26.6234 10.4602C26.6234 10.2578 26.5459 10.0637 26.4078 9.92055C26.2698 9.77743 26.0826 9.69702 25.8875 9.69702H22.9437C22.7486 9.69702 22.5614 9.77743 22.4234 9.92055C22.2853 10.0637 22.2078 10.2578 22.2078 10.4602V13.513H23.6797V11.2234ZM30.3031 19.2369V24.9608C30.3031 25.3656 30.148 25.7538 29.872 26.0401C29.5959 26.3263 29.2215 26.4871 28.8312 26.4871H20.736V29.5399C20.736 29.7423 20.6584 29.9364 20.5204 30.0795C20.3824 30.2227 20.1952 30.3031 20 30.3031C19.8048 30.3031 19.6177 30.2227 19.4796 30.0795C19.3416 29.9364 19.2641 29.7423 19.2641 29.5399V26.4871H11.1689C10.7785 26.4871 10.4041 26.3263 10.1281 26.0401C9.85206 25.7538 9.69699 25.3656 9.69699 24.9608V19.2369C9.6987 17.7193 10.2808 16.2645 11.3155 15.1914C12.3502 14.1183 13.7531 13.5147 15.2165 13.513H22.2078V21.908C22.2078 22.1104 22.2853 22.3046 22.4234 22.4477C22.5614 22.5908 22.7486 22.6712 22.9437 22.6712C23.1389 22.6712 23.3261 22.5908 23.4641 22.4477C23.6021 22.3046 23.6797 22.1104 23.6797 21.908V13.513H24.7836C26.2469 13.5147 27.6498 14.1183 28.6845 15.1914C29.7193 16.2645 30.3013 17.7193 30.3031 19.2369ZM19.2641 19.2369C19.2641 18.1236 18.8376 17.056 18.0786 16.2688C17.3195 15.4816 16.29 15.0393 15.2165 15.0393C14.143 15.0393 13.1134 15.4816 12.3544 16.2688C11.5953 17.056 11.1689 18.1236 11.1689 19.2369V24.9608H19.2641V19.2369Z" fill="white"/>
</svg>
