<svg width="51" height="192" viewBox="0 0 51 192" fill="none" xmlns="http://www.w3.org/2000/svg">
<path d="M0 16.9808C0 8.11333 7.18854 0.924805 16.056 0.924805H68.8116V191.304H16.056C7.18853 191.304 0 184.115 0 175.248V16.9808Z" fill="#C7175F"/>
<path d="M36.3477 164.348L23.5028 164.348L23.5028 161.962L36.3477 161.962L36.3477 164.348ZM36.3477 158.855L23.5028 158.855L23.5028 156.892L33.3933 148.836L33.3933 149.809L23.5028 149.809L23.5028 147.442L36.3477 147.442L36.3477 149.405L26.4571 157.461L26.4571 156.488L36.3477 156.488L36.3477 158.855ZM36.5312 140.385C36.5312 141.388 36.3905 142.348 36.1091 143.266C35.8155 144.183 35.4424 144.911 34.9898 145.449L33.1364 144.624C33.5401 144.11 33.8766 143.474 34.1457 142.715C34.4148 141.957 34.5494 141.18 34.5494 140.385C34.5494 139.712 34.476 139.168 34.3292 138.752C34.1824 138.336 33.9867 138.03 33.742 137.834C33.4851 137.638 33.1976 137.541 32.8796 137.541C32.4881 137.541 32.1761 137.681 31.9437 137.963C31.699 138.244 31.5094 138.611 31.3749 139.064C31.2281 139.504 31.0935 139.999 30.9712 140.55C30.8488 141.088 30.7082 141.633 30.5491 142.183C30.3779 142.721 30.1638 143.217 29.9069 143.669C29.6378 144.11 29.283 144.471 28.8426 144.752C28.4022 145.033 27.8395 145.174 27.1544 145.174C26.4571 145.174 25.821 144.991 25.2461 144.624C24.6589 144.244 24.194 143.676 23.8515 142.917C23.4967 142.146 23.3193 141.174 23.3193 139.999C23.3193 139.229 23.4172 138.464 23.6129 137.706C23.8087 136.947 24.09 136.287 24.457 135.724L26.3103 136.476C25.9678 137.051 25.717 137.645 25.558 138.256C25.3867 138.868 25.3011 139.455 25.3011 140.018C25.3011 140.678 25.3806 141.217 25.5396 141.633C25.6987 142.036 25.9066 142.336 26.1635 142.532C26.4204 142.715 26.714 142.807 27.0443 142.807C27.4358 142.807 27.7539 142.672 27.9985 142.403C28.2309 142.122 28.4144 141.761 28.549 141.321C28.6836 140.868 28.8181 140.366 28.9527 139.816C29.075 139.265 29.2157 138.721 29.3747 138.183C29.5338 137.632 29.7417 137.137 29.9986 136.697C30.2555 136.244 30.6042 135.883 31.0446 135.614C31.485 135.333 32.0416 135.192 32.7144 135.192C33.3995 135.192 34.0356 135.381 34.6228 135.761C35.1977 136.128 35.6626 136.697 36.0174 137.467C36.3599 138.238 36.5312 139.21 36.5312 140.385ZM36.5312 127.248C36.5312 128.227 36.3721 129.138 36.0541 129.982C35.7238 130.814 35.265 131.542 34.6778 132.166C34.0784 132.777 33.375 133.255 32.5676 133.597C31.7602 133.94 30.8794 134.111 29.9252 134.111C28.9711 134.111 28.0903 133.94 27.2829 133.597C26.4755 133.255 25.7782 132.771 25.191 132.147C24.5916 131.524 24.1328 130.796 23.8148 129.964C23.4845 129.132 23.3193 128.221 23.3193 127.23C23.3193 126.178 23.5028 125.217 23.8698 124.349C24.2246 123.48 24.7567 122.746 25.4662 122.147L26.9159 123.688C26.4143 124.153 26.0412 124.673 25.7965 125.248C25.5396 125.823 25.4112 126.447 25.4112 127.12C25.4112 127.792 25.5213 128.41 25.7415 128.973C25.9617 129.523 26.2736 130.007 26.6773 130.423C27.081 130.826 27.5581 131.144 28.1086 131.377C28.6591 131.597 29.2646 131.707 29.9252 131.707C30.5858 131.707 31.1914 131.597 31.7419 131.377C32.2924 131.144 32.7695 130.826 33.1731 130.423C33.5768 130.007 33.8888 129.523 34.109 128.973C34.3292 128.41 34.4393 127.792 34.4393 127.12C34.4393 126.447 34.3169 125.823 34.0723 125.248C33.8154 124.673 33.43 124.153 32.9162 123.688L34.3842 122.147C35.0815 122.746 35.6137 123.48 35.9807 124.349C36.3477 125.217 36.5312 126.184 36.5312 127.248ZM36.3477 120.228L23.5028 120.228L23.5028 114.943C23.5028 113.806 23.6863 112.833 24.0533 112.026C24.4203 111.206 24.9463 110.576 25.6314 110.136C26.3165 109.695 27.13 109.475 28.0719 109.475C29.0139 109.475 29.8274 109.695 30.5124 110.136C31.1853 110.576 31.7052 111.206 32.0722 112.026C32.4269 112.833 32.6043 113.806 32.6043 114.943L32.6043 118.907L31.5217 117.843L36.3477 117.843L36.3477 120.228ZM36.3477 111.824L31.6868 115.072L31.6868 112.521L36.3477 109.255L36.3477 111.824ZM31.7786 117.843L30.6409 118.907L30.6409 115.054C30.6409 114.001 30.4146 113.212 29.9619 112.686C29.5093 112.148 28.8793 111.879 28.0719 111.879C27.2523 111.879 26.6223 112.148 26.1819 112.686C25.7415 113.212 25.5213 114.001 25.5213 115.054L25.5213 118.907L24.3469 117.843L31.7786 117.843ZM36.3477 107.173L23.5028 107.173L23.5028 104.788L36.3477 104.788L36.3477 107.173ZM36.3477 101.681L23.5028 101.681L23.5028 96.3958C23.5028 95.2582 23.6863 94.2856 24.0533 93.4782C24.4203 92.6586 24.9463 92.0286 25.6314 91.5882C26.3165 91.1478 27.13 90.9276 28.0719 90.9276C29.0139 90.9276 29.8274 91.1478 30.5124 91.5882C31.1975 92.0286 31.7235 92.6586 32.0905 93.4782C32.4575 94.2856 32.641 95.2582 32.641 96.3958L32.641 100.359L31.5217 99.2951L36.3477 99.2951L36.3477 101.681ZM31.7786 99.2951L30.6225 100.359L30.6225 96.5059C30.6225 95.4539 30.4023 94.6649 29.9619 94.1388C29.5093 93.6006 28.8793 93.3314 28.0719 93.3314C27.2523 93.3314 26.6223 93.6006 26.1819 94.1388C25.7415 94.6649 25.5213 95.4539 25.5213 96.5059L25.5213 100.359L24.3469 99.2951L31.7786 99.2951ZM36.3477 86.6831L25.5213 86.6831L25.5213 90.9402L23.5028 90.9402L23.5028 80.0405L25.5213 80.0405L25.5213 84.2976L36.3477 84.2976L36.3477 86.6831ZM36.3477 78.6172L23.5028 78.6172L23.5028 76.2318L36.3477 76.2318L36.3477 78.6172ZM36.5311 67.1058C36.5311 68.1089 36.366 69.0325 36.0357 69.8766C35.7054 70.7207 35.2467 71.4547 34.6595 72.0785C34.06 72.7024 33.3628 73.1856 32.5676 73.5282C31.7602 73.8707 30.8794 74.042 29.9252 74.042C28.971 74.042 28.0964 73.8707 27.3012 73.5282C26.4938 73.1856 25.7965 72.7024 25.2093 72.0785C24.6099 71.4547 24.1451 70.7207 23.8148 69.8766C23.4845 69.0325 23.3193 68.115 23.3193 67.1241C23.3193 66.121 23.4845 65.2035 23.8148 64.3716C24.1451 63.5276 24.6099 62.7936 25.2093 62.1697C25.7965 61.5458 26.4938 61.0626 27.3012 60.72C28.0964 60.3775 28.971 60.2062 29.9252 60.2062C30.8794 60.2062 31.7602 60.3775 32.5676 60.72C33.375 61.0626 34.0723 61.5458 34.6595 62.1697C35.2467 62.7936 35.7054 63.5276 36.0357 64.3716C36.366 65.2035 36.5311 66.1149 36.5311 67.1058ZM34.4393 67.1241C34.4393 66.4757 34.3292 65.8763 34.109 65.3258C33.8888 64.7753 33.5768 64.2982 33.1731 63.8946C32.7572 63.4909 32.2801 63.1789 31.7419 62.9587C31.1914 62.7263 30.5858 62.6101 29.9252 62.6101C29.2646 62.6101 28.6652 62.7263 28.127 62.9587C27.5765 63.1789 27.0994 63.4909 26.6957 63.8946C26.2797 64.2982 25.9617 64.7753 25.7415 65.3258C25.5213 65.8763 25.4112 66.4757 25.4112 67.1241C25.4112 67.7725 25.5213 68.3719 25.7415 68.9224C25.9617 69.4606 26.2798 69.9377 26.6957 70.3537C27.0994 70.7574 27.5765 71.0754 28.127 71.3079C28.6652 71.5281 29.2646 71.6381 29.9252 71.6381C30.5736 71.6381 31.173 71.5281 31.7235 71.3079C32.274 71.0754 32.7572 70.7574 33.1731 70.3537C33.5768 69.95 33.8888 69.4729 34.109 68.9224C34.3292 68.3719 34.4393 67.7725 34.4393 67.1241ZM36.3477 58.0447L23.5028 58.0447L23.5028 56.0813L33.3933 48.0257L33.3933 48.9983L23.5028 48.9983L23.5028 46.6312L36.3477 46.6312L36.3477 48.5946L26.4571 56.6501L26.4571 55.6776L36.3477 55.6776L36.3477 58.0447Z" fill="white"/>
<path d="M36.6998 31.9648L29.8187 25.0831L22.9375 31.9648" stroke="white" stroke-width="2.29372" stroke-linecap="round" stroke-linejoin="round"/>
</svg>
