<svg version="1.2" xmlns="http://www.w3.org/2000/svg" viewBox="0 0 88 88" width="88" height="88"><style>.a{fill:#c7175f}.b{fill:#fff}</style><path class="a" d="m4.3 15.9c0-8.8 7.1-15.9 15.9-15.9h47.7c8.8 0 15.9 7.1 15.9 15.9v47.7c0 8.8-7.1 15.9-15.9 15.9h-47.7c-8.8 0-15.9-7.1-15.9-15.9z"/><path fill-rule="evenodd" class="b" d="m65.3 45.3v13.6q0 0.4-0.2 0.8-0.2 0.4-0.7 0.7-0.4 0.2-0.8 0.2-0.5 0-0.9-0.2l-5.4-3-5.3 3q-0.4 0.2-0.9 0.2-0.4 0-0.9-0.2-0.4-0.3-0.6-0.7-0.2-0.4-0.2-0.8v-5.3h-26.7c-0.9 0-1.8-0.3-2.5-1-0.6-0.6-1-1.5-1-2.4v-27.8c0-1 0.4-1.9 1-2.5 0.7-0.7 1.6-1 2.5-1h39.1c0.9 0 1.8 0.3 2.5 1 0.7 0.6 1 1.5 1 2.5v6.6c1.1 1 2 2.3 2.6 3.7 0.7 1.4 1 2.9 1 4.4 0 1.6-0.3 3.1-1 4.5-0.6 1.4-1.5 2.6-2.6 3.7zm-15.9 4.9v-4.9c-2-1.9-3.2-4.3-3.5-6.9-0.3-2.6 0.3-5.3 1.8-7.5 1.5-2.2 3.7-3.8 6.3-4.6 2.5-0.7 5.3-0.6 7.8 0.4v-4.3h-39.1v27.8zm-7.1-10.5c0 0.5-0.1 0.9-0.5 1.3-0.3 0.3-0.8 0.5-1.2 0.5h-10.7c-0.4 0-0.9-0.2-1.2-0.5-0.4-0.4-0.5-0.8-0.5-1.3 0-0.4 0.1-0.9 0.5-1.2 0.3-0.3 0.8-0.5 1.2-0.5h10.7c0.4 0 0.9 0.2 1.2 0.5 0.4 0.3 0.5 0.8 0.5 1.2zm-0.5-8.1c0.4 0.3 0.5 0.7 0.5 1.2 0 0.4-0.1 0.9-0.5 1.2-0.3 0.3-0.8 0.5-1.2 0.5h-10.7c-0.4 0-0.9-0.2-1.2-0.5-0.4-0.3-0.5-0.8-0.5-1.2 0-0.5 0.1-0.9 0.5-1.2 0.3-0.4 0.8-0.6 1.2-0.6h10.7c0.4 0 0.9 0.2 1.2 0.6zm20.1 16c-1.4 0.5-2.9 0.8-4.5 0.8-1.5 0-3-0.3-4.4-0.8v8.3l3.5-2q0.5-0.3 0.9-0.3 0.5 0 0.9 0.3l3.6 2zm3.5-10.5c0-1.5-0.5-3-1.3-4.3-0.9-1.3-2.2-2.3-3.6-2.9-1.5-0.6-3.1-0.7-4.6-0.4-1.6 0.3-3 1-4.1 2.1-1.1 1.1-1.9 2.5-2.2 4-0.3 1.5-0.2 3.1 0.4 4.5 0.6 1.5 1.7 2.7 3 3.5 1.3 0.9 2.8 1.4 4.4 1.4q1.6 0 3.1-0.6 1.4-0.6 2.6-1.7 1.1-1.1 1.7-2.6 0.6-1.4 0.6-3z"/></svg>