<svg width="23" height="23" viewBox="0 0 23 23" fill="none" xmlns="http://www.w3.org/2000/svg">
<path d="M11.7699 0.578125C9.59498 0.578125 7.46893 1.22311 5.66058 2.4315C3.85223 3.6399 2.44279 5.35744 1.6105 7.36694C0.778202 9.37643 0.560436 11.5876 0.984736 13.7209C1.40904 15.8542 2.45634 17.8137 3.99422 19.3517C5.5321 20.8897 7.49147 21.9371 9.62457 22.3614C11.7577 22.7857 13.9687 22.568 15.978 21.7356C17.9873 20.9032 19.7048 19.4937 20.9131 17.6852C22.1214 15.8767 22.7663 13.7505 22.7663 11.5754C22.7632 8.6597 21.6037 5.86428 19.5421 3.80256C17.4805 1.74083 14.6854 0.581204 11.7699 0.578125ZM12.6157 20.8417V14.1133H15.1534C15.3777 14.1133 15.5929 14.0241 15.7515 13.8655C15.9101 13.7068 15.9993 13.4917 15.9993 13.2673C15.9993 13.043 15.9101 12.8278 15.7515 12.6691C15.5929 12.5105 15.3777 12.4214 15.1534 12.4214H12.6157V9.88353C12.6157 9.43481 12.794 9.00447 13.1112 8.68718C13.4285 8.36989 13.8588 8.19164 14.3075 8.19164H15.9993C16.2236 8.19164 16.4388 8.10251 16.5974 7.94387C16.756 7.78522 16.8451 7.57005 16.8451 7.34569C16.8451 7.12133 16.756 6.90616 16.5974 6.74752C16.4388 6.58887 16.2236 6.49975 15.9993 6.49975H14.3075C13.4101 6.49975 12.5495 6.85625 11.915 7.49083C11.2805 8.12542 10.924 8.98609 10.924 9.88353V12.4214H8.38635C8.16201 12.4214 7.94686 12.5105 7.78822 12.6691C7.62959 12.8278 7.54047 13.043 7.54047 13.2673C7.54047 13.4917 7.62959 13.7068 7.78822 13.8655C7.94686 14.0241 8.16201 14.1133 8.38635 14.1133H10.924V20.8417C8.53945 20.624 6.33061 19.4954 4.75694 17.6905C3.18326 15.8857 2.36589 13.5436 2.47484 11.1514C2.58379 8.75925 3.61068 6.50118 5.3419 4.84688C7.07313 3.19258 9.37541 2.26942 11.7699 2.26942C14.1643 2.26942 16.4666 3.19258 18.1978 4.84688C19.9291 6.50118 20.9559 8.75925 21.0649 11.1514C21.1738 13.5436 20.3565 15.8857 18.7828 17.6905C17.2091 19.4954 15.0003 20.624 12.6157 20.8417Z" fill="#C7175F"/>
</svg>
