<svg width="33" height="34" viewBox="0 0 33 34" fill="none" xmlns="http://www.w3.org/2000/svg">
<rect y="0.307617" width="33" height="33" rx="16.5" fill="#C7175F"/>
<g clip-path="url(#clip0_225_3194)">
<path d="M25.3649 12.1501L24.6787 10.6763C24.5935 10.4952 24.4695 10.335 24.3155 10.2071C24.1616 10.0792 23.9813 9.98664 23.7877 9.93609C21.6074 9.34209 19.1065 8.97872 16.528 8.93372C13.9867 8.97317 11.46 9.32609 9.00515 9.98447C8.81953 10.0385 8.49553 10.3107 8.32453 10.6696L7.6349 12.1512C7.54638 12.3335 7.50023 12.5335 7.4999 12.7362V13.715L7.49878 13.7611C7.49878 14.2021 7.85653 14.5598 8.29753 14.5598L8.33465 14.5587H11.1674C11.3906 14.5534 11.6029 14.461 11.7589 14.3012C11.9149 14.1415 12.0022 13.927 12.0022 13.7037L11.9999 13.6441V12.6878C12 12.5656 12.0307 12.4453 12.0893 12.338C12.1478 12.2307 12.2324 12.1398 12.3352 12.0736C13.6208 11.3907 15.0724 11.0824 16.5247 11.1837C17.9738 11.086 19.4215 11.3929 20.7063 12.0702C20.8672 12.1816 21.001 12.4077 21.001 12.6653V13.6463C20.9934 13.7613 21.0091 13.8766 21.0472 13.9854C21.0852 14.0941 21.1449 14.194 21.2225 14.2791C21.3002 14.3642 21.3942 14.4328 21.499 14.4806C21.6038 14.5285 21.7172 14.5547 21.8324 14.5576H24.6685L24.7034 14.5587C24.9152 14.5587 25.1184 14.4746 25.2682 14.3248C25.418 14.175 25.5022 13.9718 25.5022 13.76L25.501 13.7116V12.7351C25.5003 12.5295 25.453 12.3268 25.3627 12.1422L25.3649 12.1501Z" fill="white"/>
<path d="M21 17.1451C20.2678 16.2069 19.8713 15.0502 19.8739 13.8601L19.875 13.7656V13.4326H18.75V14.5576H14.25V13.4326H13.125V13.8039L13.1261 13.8939C13.1277 15.0888 12.728 16.2496 11.991 17.1901L8.625 21.3076V24.6826H24.375V21.3076L21 17.1451ZM16.5 22.4326C15.6049 22.4326 14.7464 22.077 14.1135 21.4441C13.4806 20.8112 13.125 19.9527 13.125 19.0576C13.125 18.1625 13.4806 17.3041 14.1135 16.6711C14.7464 16.0382 15.6049 15.6826 16.5 15.6826C17.3951 15.6826 18.2536 16.0382 18.8865 16.6711C19.5194 17.3041 19.875 18.1625 19.875 19.0576C19.875 19.9527 19.5194 20.8112 18.8865 21.4441C18.2536 22.077 17.3951 22.4326 16.5 22.4326Z" fill="white"/>
<path d="M18.7499 19.0577C18.7567 19.3573 18.7035 19.6553 18.5936 19.9341C18.4836 20.2129 18.319 20.4669 18.1096 20.6812C17.9001 20.8956 17.6499 21.0659 17.3737 21.1822C17.0974 21.2985 16.8008 21.3584 16.5011 21.3585C16.2013 21.3586 15.9046 21.2988 15.6284 21.1826C15.3521 21.0665 15.1018 20.8963 14.8922 20.682C14.6826 20.4678 14.5179 20.2139 14.4078 19.9351C14.2977 19.6564 14.2444 19.3584 14.251 19.0588C14.264 18.4709 14.5067 17.9115 14.927 17.5002C15.3473 17.089 15.9119 16.8587 16.4999 16.8585C17.088 16.8584 17.6527 17.0884 18.0732 17.4994C18.4937 17.9105 18.7366 18.4698 18.7499 19.0577Z" fill="white"/>
</g>
<defs>
<clipPath id="clip0_225_3194">
<rect width="18" height="18" fill="white" transform="translate(7.5 7.80762)"/>
</clipPath>
</defs>
</svg>
