<svg width="23" height="22" viewBox="0 0 23 22" fill="none" xmlns="http://www.w3.org/2000/svg">
<path d="M11.1331 5.92992C10.1293 5.92992 9.14809 6.2276 8.31347 6.78533C7.47885 7.34305 6.82834 8.13576 6.4442 9.06322C6.06007 9.99068 5.95956 11.0112 6.15539 11.9958C6.35122 12.9804 6.83459 13.8848 7.54438 14.5946C8.25417 15.3045 9.1585 15.7879 10.143 15.9837C11.1275 16.1796 12.148 16.0791 13.0754 15.6949C14.0027 15.3107 14.7954 14.6602 15.3531 13.8255C15.9108 12.9908 16.2084 12.0095 16.2084 11.0056C16.207 9.65987 15.6718 8.36967 14.7204 7.4181C13.7689 6.46653 12.4788 5.93132 11.1331 5.92992ZM11.1331 14.3894C10.4639 14.3894 9.80978 14.1909 9.25336 13.8191C8.69695 13.4473 8.26327 12.9188 8.00718 12.3005C7.75109 11.6822 7.68409 11.0018 7.81464 10.3455C7.94519 9.68906 8.26744 9.08613 8.74063 8.6129C9.21383 8.13967 9.81671 7.81739 10.4731 7.68683C11.1294 7.55627 11.8097 7.62328 12.428 7.87939C13.0462 8.1355 13.5746 8.56921 13.9464 9.12567C14.3182 9.68213 14.5167 10.3363 14.5167 11.0056C14.5167 11.903 14.1602 12.7637 13.5256 13.3983C12.8911 14.0329 12.0305 14.3894 11.1331 14.3894ZM16.2084 0.00830078H6.05787C4.488 0.00998022 2.98291 0.634403 1.87284 1.74456C0.762771 2.85471 0.138398 4.35993 0.136719 5.92992V16.0813C0.138398 17.6513 0.762771 19.1565 1.87284 20.2666C2.98291 21.3768 4.488 22.0012 6.05787 22.0029H16.2084C17.7783 22.0012 19.2834 21.3768 20.3934 20.2666C21.5035 19.1565 22.1279 17.6513 22.1296 16.0813V5.92992C22.1279 4.35993 21.5035 2.85471 20.3934 1.74456C19.2834 0.634403 17.7783 0.00998022 16.2084 0.00830078ZM20.4378 16.0813C20.4378 17.2031 19.9922 18.2789 19.199 19.0721C18.4059 19.8654 17.3301 20.311 16.2084 20.311H6.05787C4.93616 20.311 3.8604 19.8654 3.06724 19.0721C2.27407 18.2789 1.82848 17.2031 1.82848 16.0813V5.92992C1.82848 4.80813 2.27407 3.73228 3.06724 2.93905C3.8604 2.14582 4.93616 1.70019 6.05787 1.70019H16.2084C17.3301 1.70019 18.4059 2.14582 19.199 2.93905C19.9922 3.73228 20.4378 4.80813 20.4378 5.92992V16.0813ZM17.9002 5.50695C17.9002 5.75792 17.8258 6.00325 17.6863 6.21192C17.5469 6.42059 17.3488 6.58323 17.1169 6.67928C16.8851 6.77532 16.6299 6.80045 16.3838 6.75149C16.1377 6.70252 15.9116 6.58167 15.7342 6.40421C15.5567 6.22675 15.4359 6.00065 15.3869 5.7545C15.338 5.50836 15.3631 5.25322 15.4591 5.02135C15.5552 4.78949 15.7178 4.59131 15.9264 4.45188C16.1351 4.31245 16.3804 4.23803 16.6314 4.23803C16.9679 4.23803 17.2906 4.37172 17.5285 4.60969C17.7665 4.84766 17.9002 5.17041 17.9002 5.50695Z" fill="#C7175F"/>
</svg>
