<svg version="1.2" xmlns="http://www.w3.org/2000/svg" viewBox="0 0 79 78" width="79" height="78"><style>.a{fill:#fff}.b{fill:#c7175f}</style><path class="a" d="m0.5 15.6c0-8.6 7-15.6 15.6-15.6h46.6c8.6 0 15.6 7 15.6 15.6v46.6c0 8.6-7 15.6-15.6 15.6h-46.6c-8.6 0-15.6-7-15.6-15.6z"/><path fill-rule="evenodd" class="b" d="m60.6 24.4q0.5 0.2 0.8 0.7 0.3 0.4 0.3 1 0 0.5-0.3 1-0.3 0.4-0.8 0.6l-9.5 3.1c1.9 3.1 2.5 6.8 1.7 10.3-0.9 3.6-3.1 6.6-6.1 8.5 3.8 1.5 7.2 4.3 9.6 8 0.3 0.4 0.3 0.8 0.2 1.3-0.1 0.4-0.3 0.8-0.7 1-0.4 0.3-0.8 0.4-1.3 0.3-0.4-0.1-0.8-0.4-1.1-0.7-3.2-5-8.3-7.8-14-7.8-5.7 0-10.8 2.8-14 7.8q-0.2 0.3-0.5 0.4-0.3 0.2-0.6 0.3-0.4 0.1-0.7 0-0.3 0-0.6-0.2-0.3-0.2-0.5-0.5-0.2-0.3-0.3-0.6 0-0.3 0-0.7 0.1-0.3 0.3-0.6c2.4-3.7 5.8-6.5 9.6-8-3.1-1.9-5.3-4.9-6.1-8.5-0.8-3.5-0.2-7.2 1.7-10.3l-7.2-2.4v14.7c0 0.5-0.2 0.9-0.5 1.2-0.3 0.4-0.8 0.6-1.2 0.6-0.5 0-0.9-0.2-1.3-0.6-0.3-0.3-0.5-0.7-0.5-1.2v-17.1q0-0.5 0.4-1 0.3-0.4 0.8-0.6l20.7-6.8q0.5-0.2 1 0l20.7 6.8zm-12.9 7.5l-7.8 2.6q-0.5 0.2-1 0l-7.8-2.6c-1 1.3-1.6 2.8-1.9 4.4-0.3 1.6-0.1 3.3 0.4 4.8 0.5 1.6 1.3 3 2.5 4.1 1.1 1.2 2.5 2 4.1 2.6 1.5 0.5 3.2 0.6 4.8 0.3 1.6-0.2 3.1-0.8 4.4-1.8 1.4-0.9 2.4-2.2 3.2-3.6 0.7-1.5 1.1-3.1 1.1-4.7 0-2.2-0.7-4.3-2-6.1zm6.9-5.9l-15.2-5-15.2 5 15.2 5.1z"/></svg>