<svg width="79" height="78" viewBox="0 0 79 78" fill="none" xmlns="http://www.w3.org/2000/svg">
<rect x="0.518539" width="77.7532" height="77.7532" rx="15.5506" fill="#C7175F"/>
<path d="M60.5729 24.4214L39.9386 17.5824C39.5856 17.4654 39.204 17.4654 38.851 17.5824L18.2167 24.4214C17.8743 24.5349 17.5765 24.7526 17.3655 25.0437C17.1545 25.3349 17.0409 25.6846 17.041 26.0435V43.1409C17.041 43.5944 17.2221 44.0293 17.5446 44.3499C17.8671 44.6706 18.3044 44.8507 18.7605 44.8507C19.2165 44.8507 19.6539 44.6706 19.9764 44.3499C20.2988 44.0293 20.48 43.5944 20.48 43.1409V28.4158L27.6999 30.8073C25.7817 33.8887 25.1717 37.601 26.0039 41.1292C26.836 44.6574 29.0424 47.713 32.1384 49.6252C28.2695 51.134 24.925 53.8632 22.479 57.5947C22.3517 57.7827 22.2634 57.994 22.219 58.2162C22.1746 58.4385 22.1751 58.6673 22.2205 58.8893C22.2658 59.1114 22.3551 59.3223 22.4831 59.5097C22.6111 59.6972 22.7754 59.8574 22.9662 59.9812C23.1571 60.105 23.3708 60.1898 23.595 60.2308C23.8191 60.2717 24.0492 60.2679 24.2718 60.2197C24.4945 60.1714 24.7053 60.0796 24.8919 59.9497C25.0786 59.8197 25.2374 59.6541 25.3592 59.4626C28.5983 54.5214 33.7139 51.6897 39.3948 51.6897C45.0757 51.6897 50.1913 54.5214 53.4305 59.4626C53.6827 59.8353 54.0722 60.0944 54.515 60.1837C54.9578 60.2731 55.4181 60.1856 55.7965 59.9402C56.1749 59.6948 56.441 59.3112 56.5372 58.8723C56.6334 58.4334 56.552 57.9744 56.3107 57.5947C53.8646 53.8632 50.5073 51.134 46.6512 49.6252C49.7443 47.7131 51.9485 44.6595 52.7806 41.1339C53.6126 37.6083 53.0046 33.8984 51.0897 30.818L60.5729 27.6763C60.9154 27.5629 61.2133 27.3452 61.4244 27.054C61.6355 26.7629 61.7491 26.4131 61.7491 26.0542C61.7491 25.6953 61.6355 25.3455 61.4244 25.0543C61.2133 24.7632 60.9154 24.5455 60.5729 24.432V24.4214ZM49.712 38.0117C49.7124 39.6335 49.3262 41.2323 48.5849 42.677C47.8435 44.1216 46.7683 45.3709 45.4474 46.3223C44.1265 47.2738 42.5975 47.9003 40.9859 48.1504C39.3743 48.4005 37.7261 48.2671 36.1764 47.7612C34.6267 47.2553 33.2197 46.3912 32.0709 45.2399C30.9221 44.0886 30.0642 42.6829 29.5675 41.1381C29.0709 39.5933 28.9497 37.9534 29.2139 36.353C29.4781 34.7526 30.1201 33.2373 31.0873 31.9314L38.851 34.496C39.204 34.613 39.5856 34.613 39.9386 34.496L47.7023 31.9314C49.0087 33.6925 49.713 35.8234 49.712 38.0117ZM39.3948 31.0808L24.1985 26.0435L39.3948 21.0061L54.5911 26.0435L39.3948 31.0808Z" fill="white"/>
</svg>
