<svg width="23" height="23" viewBox="0 0 23 23" fill="none" xmlns="http://www.w3.org/2000/svg">
<path d="M20.4378 0.438477H1.82848C1.37979 0.438477 0.949489 0.616729 0.632223 0.93402C0.314957 1.25131 0.136719 1.68165 0.136719 2.13037V20.7412C0.136719 21.1899 0.314957 21.6202 0.632223 21.9375C0.949489 22.2548 1.37979 22.4331 1.82848 22.4331H20.4378C20.8865 22.4331 21.3168 22.2548 21.6341 21.9375C21.9513 21.6202 22.1296 21.1899 22.1296 20.7412V2.13037C22.1296 1.68165 21.9513 1.25131 21.6341 0.93402C21.3168 0.616729 20.8865 0.438477 20.4378 0.438477ZM20.4378 20.7412H1.82848V2.13037H20.4378V20.7412ZM7.74963 9.74388V16.5114C7.74963 16.7358 7.66051 16.951 7.50187 17.1096C7.34324 17.2683 7.12809 17.3574 6.90375 17.3574C6.67941 17.3574 6.46425 17.2683 6.30562 17.1096C6.14699 16.951 6.05787 16.7358 6.05787 16.5114V9.74388C6.05787 9.51952 6.14699 9.30435 6.30562 9.14571C6.46425 8.98706 6.67941 8.89793 6.90375 8.89793C7.12809 8.89793 7.34324 8.98706 7.50187 9.14571C7.66051 9.30435 7.74963 9.51952 7.74963 9.74388ZM17.0543 12.7047V16.5114C17.0543 16.7358 16.9652 16.951 16.8065 17.1096C16.6479 17.2683 16.4328 17.3574 16.2084 17.3574C15.9841 17.3574 15.7689 17.2683 15.6103 17.1096C15.4517 16.951 15.3625 16.7358 15.3625 16.5114V12.7047C15.3625 12.1438 15.1397 11.6059 14.7432 11.2093C14.3466 10.8126 13.8087 10.5898 13.2478 10.5898C12.687 10.5898 12.1491 10.8126 11.7525 11.2093C11.3559 11.6059 11.1331 12.1438 11.1331 12.7047V16.5114C11.1331 16.7358 11.044 16.951 10.8854 17.1096C10.7268 17.2683 10.5116 17.3574 10.2873 17.3574C10.0629 17.3574 9.84777 17.2683 9.68914 17.1096C9.5305 16.951 9.44138 16.7358 9.44138 16.5114V9.74388C9.44243 9.53667 9.51949 9.33705 9.65794 9.18289C9.79639 9.02873 9.9866 8.93076 10.1925 8.90754C10.3984 8.88433 10.6056 8.9375 10.7749 9.05697C10.9442 9.17643 11.0638 9.35388 11.1109 9.55566C11.6832 9.16745 12.3503 8.94245 13.0408 8.90483C13.7312 8.86721 14.4188 9.01838 15.0298 9.34212C15.6409 9.66586 16.1521 10.1499 16.5088 10.7424C16.8655 11.3348 17.0541 12.0132 17.0543 12.7047ZM8.17257 6.78307C8.17257 7.03404 8.09815 7.27937 7.95873 7.48804C7.81931 7.69672 7.62115 7.85936 7.3893 7.9554C7.15746 8.05144 6.90234 8.07657 6.65621 8.02761C6.41009 7.97865 6.18401 7.85779 6.00656 7.68033C5.82911 7.50287 5.70827 7.27677 5.65931 7.03062C5.61035 6.78448 5.63548 6.52934 5.73151 6.29748C5.82755 6.06561 5.99017 5.86743 6.19883 5.728C6.40749 5.58857 6.6528 5.51415 6.90375 5.51415C7.24026 5.51415 7.56299 5.64784 7.80094 5.88581C8.03889 6.12378 8.17257 6.44653 8.17257 6.78307Z" fill="#C7175F"/>
</svg>
