<svg width="241" height="54" viewBox="0 0 241 54" fill="none" xmlns="http://www.w3.org/2000/svg">
<path d="M70.3345 48.6722H64.1655V39.7535H70.143V40.3395H64.8165V43.8561H69.5812V44.4292H64.8165V48.0855H70.3345V48.6722Z" fill="white"/>
<path d="M84.3585 44.7863V48.6722H83.7196V44.837C83.7196 43.3335 82.9399 42.5437 81.6378 42.5437C80.1305 42.5437 79.1979 43.5502 79.1979 45.13V48.6715H78.559V44.8363C78.559 43.3329 77.7793 42.543 76.4771 42.543C74.9699 42.543 74.0373 43.5496 74.0373 45.1293V48.6708H73.3984V42.0205H74.0116V43.4476C74.4461 42.5173 75.353 41.9698 76.5658 41.9698C77.7786 41.9698 78.6476 42.5173 79.0057 43.5752C79.4402 42.6065 80.41 41.9698 81.7007 41.9698C83.3095 41.9698 84.3571 42.9251 84.3571 44.7857L84.3585 44.7863Z" fill="white"/>
<path d="M94.5254 45.3473C94.5254 47.3476 93.1082 48.7235 91.23 48.7235C90.0551 48.7235 89.0589 48.1503 88.5222 47.1566V51.1444H87.8833V42.0218H88.4965V43.5894C89.0203 42.57 90.0294 41.9712 91.23 41.9712C93.1082 41.9712 94.5254 43.3599 94.5254 45.3473ZM93.8865 45.3473C93.8865 43.6785 92.7238 42.5443 91.1922 42.5443C89.6606 42.5443 88.5093 43.6785 88.5093 45.3473C88.5093 47.0162 89.6592 48.1496 91.1922 48.1496C92.7251 48.1496 93.8865 47.0155 93.8865 45.3473Z" fill="white"/>
<path d="M96.6715 45.3473C96.6715 43.3727 98.0888 41.9712 100.005 41.9712C101.921 41.9712 103.339 43.3727 103.339 45.3473C103.339 47.322 101.921 48.7235 100.005 48.7235C98.0888 48.7235 96.6715 47.322 96.6715 45.3473ZM102.687 45.3473C102.687 43.6785 101.537 42.5443 100.004 42.5443C98.4711 42.5443 97.3219 43.6785 97.3219 45.3473C97.3219 47.0162 98.4711 48.1496 100.004 48.1496C101.537 48.1496 102.687 47.0155 102.687 45.3473Z" fill="white"/>
<path d="M115.55 42.0218L113.02 48.6722H112.42L110.172 42.9008L107.91 48.6722H107.323L104.794 42.0218H105.407L107.629 47.9586L109.902 42.0218H110.451L112.712 47.9464L114.961 42.0218H115.55Z" fill="white"/>
<path d="M123.365 45.4999H117.631C117.695 47.0796 118.857 48.1496 120.454 48.1496C121.296 48.1496 122.076 47.8445 122.587 47.22L122.957 47.6406C122.369 48.3542 121.45 48.7235 120.441 48.7235C118.423 48.7235 117.005 47.322 117.005 45.3473C117.005 43.3727 118.371 41.9712 120.198 41.9712C122.024 41.9712 123.378 43.347 123.378 45.3217C123.378 45.3723 123.365 45.4364 123.365 45.4999ZM117.644 45.003H122.753C122.663 43.5631 121.616 42.5315 120.198 42.5315C118.781 42.5315 117.746 43.5509 117.644 45.003H117.644Z" fill="white"/>
<path d="M129.406 41.9705V42.595C129.356 42.595 129.304 42.5822 129.253 42.5822C127.771 42.5822 126.891 43.5631 126.891 45.2069V48.6722H126.252V42.0218H126.864V43.4739C127.273 42.5059 128.155 41.9705 129.406 41.9705Z" fill="white"/>
<path d="M131.859 39.8939C131.859 39.6138 132.089 39.3721 132.383 39.3721C132.677 39.3721 132.907 39.6016 132.907 39.8818C132.907 40.1619 132.677 40.4036 132.383 40.4036C132.089 40.4036 131.859 40.1741 131.859 39.8939ZM132.064 42.0218H132.703V48.6722H132.064V42.0218Z" fill="white"/>
<path d="M142.255 44.7863V48.6722H141.617V44.837C141.617 43.3335 140.812 42.5437 139.458 42.5437C137.887 42.5437 136.929 43.5502 136.929 45.13V48.6715H136.29V42.0212H136.903V43.4611C137.35 42.5308 138.283 41.9705 139.548 41.9705C141.169 41.9705 142.255 42.9258 142.255 44.7863H142.255Z" fill="white"/>
<path d="M151.797 42.0218V47.9586C151.797 50.1884 150.711 51.195 148.566 51.195C147.352 51.195 146.19 50.8129 145.513 50.1371L145.858 49.6531C146.522 50.2647 147.48 50.6212 148.553 50.6212C150.328 50.6212 151.158 49.8056 151.158 48.0349V46.9135C150.609 47.8823 149.587 48.4298 148.387 48.4298C146.496 48.4298 145.066 47.0918 145.066 45.1934C145.066 43.2951 146.496 41.9698 148.387 41.9698C149.612 41.9698 150.648 42.5302 151.183 43.5239V42.0205H151.796L151.797 42.0218ZM151.171 45.1941C151.171 43.6272 150.022 42.5443 148.437 42.5443C146.853 42.5443 145.717 43.6272 145.717 45.1941C145.717 46.761 146.866 47.8567 148.437 47.8567C150.008 47.8567 151.171 46.761 151.171 45.1941Z" fill="white"/>
<path d="M162.538 45.6018V48.6722H161.887V45.6018L158.285 39.7542H159.001L162.232 45.003L165.464 39.7542H166.141L162.539 45.6018H162.538Z" fill="white"/>
<path d="M166.958 45.3473C166.958 43.3727 168.375 41.9712 170.291 41.9712C172.207 41.9712 173.625 43.3727 173.625 45.3473C173.625 47.322 172.207 48.7235 170.291 48.7235C168.375 48.7235 166.958 47.322 166.958 45.3473ZM172.974 45.3473C172.974 43.6785 171.824 42.5443 170.291 42.5443C168.758 42.5443 167.609 43.6785 167.609 45.3473C167.609 47.0162 168.758 48.1496 170.291 48.1496C171.824 48.1496 172.974 47.0155 172.974 45.3473Z" fill="white"/>
<path d="M182.336 42.0218V48.6722H181.723V47.245C181.289 48.1753 180.382 48.7228 179.207 48.7228C177.509 48.7228 176.423 47.7675 176.423 45.907V42.0212H177.062V45.8564C177.062 47.3598 177.867 48.1496 179.259 48.1496C180.766 48.1496 181.699 47.1431 181.699 45.5634V42.0218H182.338H182.336Z" fill="white"/>
<path d="M189.093 41.9705V42.595C189.041 42.595 188.991 42.5822 188.939 42.5822C187.458 42.5822 186.576 43.5631 186.576 45.2069V48.6722H185.938V42.0218H186.551V43.4739C186.959 42.5059 187.841 41.9705 189.093 41.9705Z" fill="white"/>
<path d="M196.897 40.3402V44.1497H201.661V44.7357H196.897V48.6728H196.245V39.7542H202.223V40.3402H196.897Z" fill="white"/>
<path d="M210.589 42.0218V48.6722H209.975V47.245C209.541 48.1753 208.634 48.7228 207.459 48.7228C205.761 48.7228 204.675 47.7675 204.675 45.907V42.0212H205.314V45.8564C205.314 47.3598 206.119 48.1496 207.511 48.1496C209.018 48.1496 209.951 47.1431 209.951 45.5634V42.0218H210.59H210.589Z" fill="white"/>
<path d="M217.499 48.2523C217.166 48.5709 216.63 48.7235 216.132 48.7235C214.957 48.7235 214.318 48.0356 214.318 46.9142V42.57H213.092V42.0225H214.318V40.5704H214.957V42.0225H217.077V42.57H214.957V46.8508C214.957 47.7048 215.378 48.176 216.196 48.176C216.593 48.176 216.963 48.0484 217.231 47.8067L217.499 48.2529V48.2523Z" fill="white"/>
<path d="M226.005 42.0218V48.6722H225.392V47.245C224.958 48.1753 224.051 48.7228 222.876 48.7228C221.177 48.7228 220.091 47.7675 220.091 45.907V42.0212H220.73V45.8564C220.73 47.3598 221.535 48.1496 222.927 48.1496C224.434 48.1496 225.367 47.1431 225.367 45.5634V42.0218H226.005H226.005Z" fill="white"/>
<path d="M232.761 41.9705V42.595C232.711 42.595 232.659 42.5822 232.608 42.5822C231.126 42.5822 230.246 43.5631 230.246 45.2069V48.6722H229.607V42.0218H230.219V43.4739C230.628 42.5059 231.51 41.9705 232.761 41.9705Z" fill="white"/>
<path d="M240.987 45.4999H235.253C235.316 47.0796 236.478 48.1496 238.076 48.1496C238.918 48.1496 239.697 47.8445 240.208 47.22L240.578 47.6406C239.991 48.3542 239.072 48.7235 238.062 48.7235C236.044 48.7235 234.627 47.322 234.627 45.3473C234.627 43.3727 235.993 41.9712 237.82 41.9712C239.646 41.9712 241 43.347 241 45.3217C241 45.3723 240.987 45.4364 240.987 45.4999ZM235.265 45.003H240.374C240.285 43.5631 239.237 42.5315 237.82 42.5315C236.402 42.5315 235.368 43.5509 235.265 45.003H235.265Z" fill="white"/>
<path d="M40.9674 11.4145L32.0431 16.5708V0H28.1454V23.3049L32.0431 21.0575L42.9159 14.7737L40.9674 11.4145Z" fill="white"/>
<path d="M44.8577 30.9726L38.1526 27.107L52.538 18.8196L50.5888 15.4529L30.3572 27.1084L42.9159 34.3366L44.8577 30.9726Z" fill="white"/>
<path d="M32.0323 46.9851L32.0411 37.2415L46.4252 45.5316L48.3757 42.1649L28.1454 30.5061L28.1407 46.9878L32.0323 46.9851Z" fill="white"/>
<path d="M11.5713 42.5855L20.4949 37.4292V54H24.3933V30.6951L20.4949 32.9425L9.62208 39.2263L11.5713 42.5855Z" fill="white"/>
<path d="M7.68034 23.0274L14.3854 26.893L0 35.1804L1.94919 38.5471L22.1815 26.8916L9.62208 19.6634L7.68034 23.0274Z" fill="#C7175F"/>
<path d="M20.5064 7.01489L20.4976 16.7585L6.11287 8.46836L4.163 11.8351L24.3933 23.4939L24.3973 7.01219L20.5064 7.01489Z" fill="white"/>
<path d="M67.1935 26.625C69.6421 28.1534 72.5578 28.8244 75.418 28.8244C77.3245 28.8244 80.5955 28.6381 80.5955 26.0471C80.5955 23.6978 76.8386 23.1759 75.1378 22.8026C70.3528 21.7582 65.0257 19.708 65.0257 13.965C65.0257 8.22196 70.1842 5.98537 75.4186 5.98537C79.0077 5.98537 82.7836 6.65641 85.8116 8.66954L82.7836 13.0516C80.3721 11.858 78.092 11.3733 75.4186 11.3733C73.6989 11.3733 71.3253 11.7837 71.3253 13.9643C71.3253 16.3136 74.5591 16.8915 76.3161 17.2831C81.2134 18.3835 86.8951 20.005 86.8951 26.0464C86.8951 32.553 80.8581 34.2124 75.4186 34.2124C71.3626 34.2124 67.4371 33.5224 64.1661 31.0057L67.1941 26.6243L67.1935 26.625Z" fill="white"/>
<path d="M90.6284 21.3296V6.73067H96.8529V21.3296C96.8529 25.5435 97.638 28.8244 102.573 28.8244C107.507 28.8244 108.273 25.5246 108.273 21.3296V6.73067H114.498V21.3296C114.498 29.3092 110.984 34.2124 102.573 34.2124C94.1613 34.2124 90.6284 29.3274 90.6284 21.3296Z" fill="white"/>
<path d="M171.195 6.73067H179.737L186.542 23.6607L193.345 6.73067H201.887V33.467H195.663V16.6869L188.953 33.467H184.131L177.42 16.6869V33.467H171.196V6.73067H171.195Z" fill="white"/>
<path d="M206.926 6.73067H213.151V33.467H206.926V6.73067Z" fill="white"/>
<path d="M131.353 6.73067H119.353V33.467H125.577V23.9678C125.577 24.3479 125.577 25.4503 127.063 25.4503H131.353C137.353 25.4503 142.119 22.5603 142.119 16.0908C142.119 9.62142 137.353 6.73135 131.353 6.73135V6.73067ZM131.353 20.0617H125.577V12.1186H131.353C134.007 12.1186 135.82 13.2743 135.82 16.0902C135.82 18.906 134.007 20.0617 131.353 20.0617Z" fill="white"/>
<path d="M152.825 28.0785V21.0406C152.825 21.4193 152.825 22.5224 154.307 22.5224C154.309 22.5224 154.31 22.5231 154.311 22.5231L165.722 22.5224V17.1345H152.824V12.1186H166.526V6.73067H146.6V33.467H166.713V28.0791H152.824L152.825 28.0785Z" fill="white"/>
<path d="M235.393 23.4547C238.719 22.0566 240.739 19.4467 240.739 15.7729C240.739 9.56471 235.954 6.73067 230.196 6.73067H218.197V33.467H224.42V22.7756C224.42 23.1537 224.42 24.2568 225.901 24.2568C225.903 24.2568 225.905 24.2581 225.906 24.2581H226.352V24.2568H229.167L234.327 33.467H240.999L235.392 23.4547H235.393ZM230.196 19.4271H224.42V12.1186H230.196C232.645 12.1186 234.439 13.1441 234.439 15.7729C234.439 18.4017 232.645 19.4271 230.196 19.4271Z" fill="white"/>
</svg>
