<svg width="216" height="49" viewBox="0 0 216 49" fill="none" xmlns="http://www.w3.org/2000/svg">
<path d="M63.7111 43.7812H58.2079V35.8043H63.5403V36.3284H58.7887V39.4737H63.0392V39.9863H58.7887V43.2565H63.7111V43.7812Z" fill="#02095B"/>
<path d="M76.2216 40.3057V43.7812H75.6517V40.351C75.6517 39.0063 74.9562 38.2999 73.7945 38.2999C72.45 38.2999 71.618 39.2002 71.618 40.6131V43.7806H71.048V40.3504C71.048 39.0057 70.3525 38.2993 69.1909 38.2993C67.8463 38.2993 67.0143 39.1996 67.0143 40.6125V43.78H66.4444V37.8319H66.9914V39.1084C67.379 38.2763 68.188 37.7866 69.27 37.7866C70.3519 37.7866 71.1271 38.2763 71.4465 39.2225C71.8341 38.356 72.6993 37.7866 73.8507 37.7866C75.2858 37.7866 76.2204 38.641 76.2204 40.3051L76.2216 40.3057Z" fill="#02095B"/>
<path d="M85.2913 40.8075C85.2913 42.5966 84.027 43.8271 82.3516 43.8271C81.3035 43.8271 80.4147 43.3145 79.936 42.4257V45.9924H79.366V37.8331H79.913V39.2352C80.3803 38.3234 81.2805 37.7879 82.3516 37.7879C84.027 37.7879 85.2913 39.0299 85.2913 40.8075ZM84.7214 40.8075C84.7214 39.3149 83.6841 38.3005 82.3178 38.3005C80.9515 38.3005 79.9245 39.3149 79.9245 40.8075C79.9245 42.3001 80.9503 43.3139 82.3178 43.3139C83.6853 43.3139 84.7214 42.2995 84.7214 40.8075Z" fill="#02095B"/>
<path d="M87.2058 40.8075C87.2058 39.0414 88.4701 37.7879 90.1794 37.7879C91.8886 37.7879 93.1535 39.0414 93.1535 40.8075C93.1535 42.5736 91.8886 43.8271 90.1794 43.8271C88.4701 43.8271 87.2058 42.5736 87.2058 40.8075ZM92.5721 40.8075C92.5721 39.3149 91.5463 38.3005 90.1787 38.3005C88.8112 38.3005 87.786 39.3149 87.786 40.8075C87.786 42.3001 88.8112 43.3139 90.1787 43.3139C91.5463 43.3139 92.5721 42.2995 92.5721 40.8075Z" fill="#02095B"/>
<path d="M104.047 37.8331L101.79 43.7812H101.255L99.249 38.6193L97.2319 43.7812H96.7078L94.4516 37.8331H94.9986L96.9807 43.143L99.0087 37.8331H99.4984L101.516 43.1321L103.521 37.8331H104.047Z" fill="#02095B"/>
<path d="M111.019 40.944H105.903C105.96 42.3569 106.997 43.3139 108.421 43.3139C109.173 43.3139 109.869 43.041 110.324 42.4825L110.655 42.8586C110.13 43.4968 109.31 43.8271 108.41 43.8271C106.609 43.8271 105.345 42.5736 105.345 40.8075C105.345 39.0414 106.564 37.7879 108.193 37.7879C109.823 37.7879 111.03 39.0184 111.03 40.7845C111.03 40.8298 111.019 40.8872 111.019 40.944ZM105.915 40.4995H110.472C110.393 39.2116 109.459 38.289 108.194 38.289C106.929 38.289 106.006 39.2008 105.915 40.4995H105.915Z" fill="#02095B"/>
<path d="M116.408 37.7872V38.3458C116.363 38.3458 116.317 38.3343 116.271 38.3343C114.949 38.3343 114.164 39.2116 114.164 40.6819V43.7812H113.594V37.8331H114.14V39.1319C114.505 38.2661 115.292 37.7872 116.408 37.7872Z" fill="#02095B"/>
<path d="M118.596 35.9299C118.596 35.6794 118.801 35.4632 119.063 35.4632C119.325 35.4632 119.531 35.6685 119.531 35.9191C119.531 36.1696 119.325 36.3858 119.063 36.3858C118.801 36.3858 118.596 36.1805 118.596 35.9299ZM118.779 37.8331H119.349V43.7812H118.779V37.8331Z" fill="#02095B"/>
<path d="M127.87 40.3057V43.7812H127.3V40.351C127.3 39.0063 126.582 38.2999 125.375 38.2999C123.973 38.2999 123.119 39.2002 123.119 40.6131V43.7806H122.549V37.8325H123.095V39.1205C123.494 38.2884 124.326 37.7872 125.455 37.7872C126.901 37.7872 127.87 38.6416 127.87 40.3057H127.87Z" fill="#02095B"/>
<path d="M136.382 37.8331V43.143C136.382 45.1374 135.414 46.0377 133.5 46.0377C132.417 46.0377 131.381 45.6959 130.776 45.0915L131.084 44.6586C131.676 45.2056 132.531 45.5244 133.488 45.5244C135.072 45.5244 135.812 44.795 135.812 43.2113V42.2083C135.322 43.0748 134.411 43.5645 133.34 43.5645C131.653 43.5645 130.377 42.3677 130.377 40.6698C130.377 38.9719 131.653 37.7866 133.34 37.7866C134.433 37.7866 135.357 38.2878 135.834 39.1766V37.8319H136.381L136.382 37.8331ZM135.824 40.6704C135.824 39.269 134.798 38.3005 133.385 38.3005C131.972 38.3005 130.958 39.269 130.958 40.6704C130.958 42.0719 131.984 43.0518 133.385 43.0518C134.786 43.0518 135.824 42.0719 135.824 40.6704Z" fill="#02095B"/>
<path d="M145.964 41.0351V43.7812H145.383V41.0351L142.17 35.8049H142.808L145.691 40.4995L148.574 35.8049H149.178L145.965 41.0351H145.964Z" fill="#02095B"/>
<path d="M149.907 40.8075C149.907 39.0414 151.171 37.7879 152.88 37.7879C154.59 37.7879 155.854 39.0414 155.854 40.8075C155.854 42.5736 154.59 43.8271 152.88 43.8271C151.171 43.8271 149.907 42.5736 149.907 40.8075ZM155.274 40.8075C155.274 39.3149 154.248 38.3005 152.88 38.3005C151.513 38.3005 150.488 39.3149 150.488 40.8075C150.488 42.3001 151.513 43.3139 152.88 43.3139C154.248 43.3139 155.274 42.2995 155.274 40.8075Z" fill="#02095B"/>
<path d="M163.625 37.8331V43.7812H163.078V42.5048C162.691 43.3368 161.882 43.8265 160.834 43.8265C159.319 43.8265 158.35 42.9721 158.35 41.308V37.8325H158.92V41.2628C158.92 42.6074 159.638 43.3139 160.88 43.3139C162.225 43.3139 163.057 42.4136 163.057 41.0007V37.8331H163.627H163.625Z" fill="#02095B"/>
<path d="M169.653 37.7872V38.3458C169.607 38.3458 169.562 38.3343 169.516 38.3343C168.194 38.3343 167.408 39.2116 167.408 40.6819V43.7812H166.838V37.8331H167.385V39.1319C167.749 38.2661 168.536 37.7872 169.653 37.7872Z" fill="#02095B"/>
<path d="M176.615 36.3291V39.7363H180.865V40.2604H176.615V43.7818H176.033V35.8049H181.366V36.3291H176.615Z" fill="#02095B"/>
<path d="M188.829 37.8331V43.7812H188.282V42.5048C187.894 43.3368 187.085 43.8265 186.037 43.8265C184.522 43.8265 183.554 42.9721 183.554 41.308V37.8325H184.124V41.2628C184.124 42.6074 184.842 43.3139 186.084 43.3139C187.428 43.3139 188.26 42.4136 188.26 41.0007V37.8331H188.83H188.829Z" fill="#02095B"/>
<path d="M194.993 43.4057C194.697 43.6907 194.218 43.8271 193.774 43.8271C192.726 43.8271 192.156 43.2119 192.156 42.2089V38.3234H191.062V37.8337H192.156V36.535H192.726V37.8337H194.617V38.3234H192.726V42.1522C192.726 42.916 193.102 43.3374 193.831 43.3374C194.185 43.3374 194.515 43.2233 194.754 43.0072L194.993 43.4063V43.4057Z" fill="#02095B"/>
<path d="M202.581 37.8331V43.7812H202.035V42.5048C201.647 43.3368 200.838 43.8265 199.79 43.8265C198.275 43.8265 197.306 42.9721 197.306 41.308V37.8325H197.876V41.2628C197.876 42.6074 198.593 43.3139 199.836 43.3139C201.18 43.3139 202.012 42.4136 202.012 41.0007V37.8331H202.582H202.581Z" fill="#02095B"/>
<path d="M208.609 37.7872V38.3458C208.563 38.3458 208.517 38.3343 208.472 38.3343C207.15 38.3343 206.364 39.2116 206.364 40.6819V43.7812H205.794V37.8331H206.341V39.1319C206.706 38.2661 207.492 37.7872 208.609 37.7872Z" fill="#02095B"/>
<path d="M215.947 40.944H210.831C210.888 42.3569 211.924 43.3139 213.349 43.3139C214.101 43.3139 214.796 43.041 215.252 42.4825L215.582 42.8586C215.058 43.4968 214.238 43.8271 213.337 43.8271C211.537 43.8271 210.273 42.5736 210.273 40.8075C210.273 39.0414 211.492 37.7879 213.121 37.7879C214.751 37.7879 215.958 39.0184 215.958 40.7845C215.958 40.8298 215.947 40.8872 215.947 40.944ZM210.842 40.4995H215.4C215.32 39.2116 214.385 38.289 213.121 38.289C211.857 38.289 210.934 39.2008 210.842 40.4995H210.842Z" fill="#02095B"/>
<path d="M37.5134 10.4577L29.5522 15.0696V0.248535H26.0752V21.0926L29.5522 19.0825L39.2516 13.4623L37.5134 10.4577Z" fill="#02095B"/>
<path d="M40.9838 27.9506L35.0024 24.4932L47.8353 17.0809L46.0965 14.0697L28.0483 24.4944L39.2516 30.9594L40.9838 27.9506Z" fill="#02095B"/>
<path d="M29.5426 42.2723L29.5504 33.5576L42.3821 40.9723L44.1222 37.9611L26.0752 27.5334L26.071 42.2747L29.5426 42.2723Z" fill="#02095B"/>
<path d="M11.2897 38.3373L19.2503 33.7254V48.5465H22.728V27.7025L19.2503 29.7125L9.5509 35.3328L11.2897 38.3373Z" fill="#02095B"/>
<path d="M7.81872 20.8444L13.8002 24.3018L0.967255 31.7142L2.70608 34.7253L20.7549 24.3006L9.5509 17.8356L7.81872 20.8444Z" fill="#C7175F"/>
<path d="M19.2606 6.5227L19.2527 15.2375L6.42041 7.8227L4.68098 10.8339L22.728 21.2616L22.7316 6.52028L19.2606 6.5227Z" fill="#02095B"/>
<path d="M60.9091 24.0621C63.0935 25.4291 65.6945 26.0293 68.246 26.0293C69.9468 26.0293 72.8647 25.8627 72.8647 23.5452C72.8647 21.444 69.5133 20.9772 67.996 20.6433C63.7274 19.7092 58.9753 17.8755 58.9753 12.7389C58.9753 7.60231 63.5771 5.60189 68.2466 5.60189C71.4483 5.60189 74.8167 6.20208 77.5179 8.00263L74.8167 11.9219C72.6655 10.8544 70.6314 10.4209 68.2466 10.4209C66.7124 10.4209 64.595 10.788 64.595 12.7383C64.595 14.8395 67.4798 15.3564 69.0472 15.7066C73.416 16.6908 78.4845 18.1412 78.4845 23.5446C78.4845 29.3641 73.099 30.8483 68.2466 30.8483C64.6283 30.8483 61.1264 30.2312 58.2085 27.9802L60.9097 24.0615L60.9091 24.0621Z" fill="#02095B"/>
<path d="M81.8149 19.3258V6.2685H87.3676V19.3258C87.3676 23.0948 88.068 26.0293 92.47 26.0293C96.872 26.0293 97.5555 23.0779 97.5555 19.3258V6.2685H103.108V19.3258C103.108 26.4628 99.9735 30.8483 92.47 30.8483C84.9665 30.8483 81.8149 26.4791 81.8149 19.3258Z" fill="#02095B"/>
<path d="M153.687 6.2685H161.307L167.377 21.4108L173.446 6.2685H181.066V30.1817H175.514V15.1734L169.528 30.1817H165.227L159.24 15.1734V30.1817H153.688V6.2685H153.687Z" fill="#02095B"/>
<path d="M185.562 6.2685H191.115V30.1817H185.562V6.2685Z" fill="#02095B"/>
<path d="M118.144 6.2685H107.44V30.1817H112.992V21.6855C112.992 22.0255 112.992 23.0115 114.318 23.0115H118.144C123.497 23.0115 127.749 20.4266 127.749 14.6403C127.749 8.854 123.497 6.2691 118.144 6.2691V6.2685ZM118.144 18.1919H112.992V11.0875H118.144C120.512 11.0875 122.13 12.1212 122.13 14.6397C122.13 17.1582 120.512 18.1919 118.144 18.1919Z" fill="#02095B"/>
<path d="M137.299 25.3621V19.0674C137.299 19.4061 137.299 20.3928 138.621 20.3928C138.623 20.3928 138.624 20.3934 138.625 20.3934L148.804 20.3928V15.5738H137.299V11.0875H149.521V6.2685H131.746V30.1817H149.688V25.3627H137.299L137.299 25.3621Z" fill="#02095B"/>
<path d="M210.956 21.2266C213.923 19.9761 215.725 17.6418 215.725 14.3559C215.725 8.80328 211.457 6.2685 206.32 6.2685H195.616V30.1817H201.168V20.6192C201.168 20.9573 201.168 21.9439 202.489 21.9439C202.491 21.9439 202.492 21.9452 202.493 21.9452H202.891V21.9439H205.403L210.005 30.1817H215.958L210.955 21.2266H210.956ZM206.32 17.6243H201.168V11.0875H206.32C208.505 11.0875 210.105 12.0047 210.105 14.3559C210.105 16.7071 208.505 17.6243 206.32 17.6243Z" fill="#02095B"/>
</svg>
