<svg width="33" height="34" viewBox="0 0 33 34" fill="none" xmlns="http://www.w3.org/2000/svg">
<rect y="0.307617" width="33" height="33" rx="16.5" fill="#C7175F"/>
<path d="M25.5 21.2276V24.7636C25.5001 25.0168 25.4042 25.2606 25.2316 25.4458C25.059 25.631 24.8226 25.7439 24.57 25.7616C24.1333 25.7923 23.7767 25.8076 23.5 25.8076C14.663 25.8076 7.5 18.6446 7.5 9.80762C7.5 9.53162 7.51533 9.17495 7.546 8.73762C7.56372 8.48506 7.67658 8.24863 7.8618 8.07603C8.04703 7.90342 8.29082 7.8075 8.544 7.80762H12.08C12.204 7.80749 12.3237 7.85348 12.4157 7.93664C12.5078 8.0198 12.5656 8.1342 12.578 8.25762C12.6007 8.48695 12.622 8.67095 12.642 8.80962C12.8407 10.1965 13.248 11.5455 13.85 12.8106C13.945 13.0106 13.883 13.2496 13.703 13.3776L11.545 14.9196C12.8647 17.9939 15.3147 20.4439 18.389 21.7636L19.929 19.6096C19.9917 19.5213 20.0835 19.4579 20.1883 19.4307C20.2932 19.4034 20.4042 19.414 20.502 19.4606C21.767 20.0615 23.1156 20.4678 24.502 20.6656C24.6407 20.6856 24.824 20.707 25.052 20.7296C25.1752 20.7423 25.2894 20.8002 25.3724 20.8922C25.4553 20.9842 25.5002 21.1037 25.5 21.2276Z" fill="white"/>
</svg>
