<svg width="79" height="78" viewBox="0 0 79 78" fill="none" xmlns="http://www.w3.org/2000/svg">
<rect x="0.331741" width="77.7532" height="77.7532" rx="15.5506" fill="#C7175F"/>
<path d="M28.2748 43.2502C26.9773 43.2502 25.709 43.6349 24.6302 44.3558C23.5514 45.0767 22.7106 46.1013 22.214 47.3C21.7175 48.4988 21.5876 49.8179 21.8407 51.0905C22.0939 52.3631 22.7186 53.532 23.6361 54.4495C24.5535 55.367 25.7224 55.9918 26.995 56.245C28.2675 56.4981 29.5865 56.3682 30.7853 55.8716C31.984 55.3751 33.0085 54.5342 33.7293 53.4554C34.4502 52.3765 34.8349 51.1081 34.8349 49.8106C34.8349 48.0707 34.1438 46.402 32.9135 45.1717C31.6832 43.9414 30.0147 43.2502 28.2748 43.2502ZM28.2748 53.4553C27.554 53.4553 26.8494 53.2415 26.25 52.841C25.6507 52.4406 25.1836 51.8713 24.9077 51.2054C24.6319 50.5394 24.5597 49.8066 24.7003 49.0996C24.8409 48.3926 25.1881 47.7431 25.6977 47.2334C26.2074 46.7237 26.8568 46.3766 27.5638 46.2359C28.2708 46.0953 29.0036 46.1675 29.6695 46.4433C30.3354 46.7192 30.9046 47.1864 31.3051 47.7857C31.7056 48.3851 31.9193 49.0897 31.9193 49.8106C31.9193 50.2892 31.825 50.7632 31.6419 51.2054C31.4587 51.6475 31.1903 52.0493 30.8519 52.3878C30.5134 52.7262 30.1117 52.9947 29.6695 53.1778C29.2273 53.361 28.7534 53.4553 28.2748 53.4553ZM22.1411 34.9294L24.756 32.3161L22.1411 29.7029C21.8675 29.4293 21.7139 29.0583 21.7139 28.6714C21.7139 28.2846 21.8675 27.9136 22.1411 27.64C22.4146 27.3664 22.7856 27.2128 23.1725 27.2128C23.5593 27.2128 23.9303 27.3664 24.2039 27.64L26.817 30.2551L29.4301 27.64C29.7037 27.3664 30.0747 27.2128 30.4615 27.2128C30.8484 27.2128 31.2194 27.3664 31.4929 27.64C31.7665 27.9136 31.9201 28.2846 31.9201 28.6714C31.9201 29.0583 31.7665 29.4293 31.4929 29.7029L28.878 32.3161L31.4929 34.9294C31.7665 35.2029 31.9201 35.5739 31.9201 35.9608C31.9201 36.3477 31.7665 36.7187 31.4929 36.9923C31.2194 37.2658 30.8484 37.4195 30.4615 37.4195C30.0747 37.4195 29.7037 37.2658 29.4301 36.9923L26.817 34.3772L24.2039 36.9923C23.9303 37.2658 23.5593 37.4195 23.1725 37.4195C22.7856 37.4195 22.4146 37.2658 22.1411 36.9923C21.8675 36.7187 21.7139 36.3477 21.7139 35.9608C21.7139 35.5739 21.8675 35.2029 22.1411 34.9294ZM56.2756 52.4238C56.411 52.5593 56.5185 52.7201 56.5918 52.8971C56.6651 53.074 56.7028 53.2637 56.7028 53.4553C56.7028 53.6468 56.6651 53.8365 56.5918 54.0135C56.5185 54.1905 56.411 54.3513 56.2756 54.4867C56.1402 54.6222 55.9794 54.7296 55.8024 54.8029C55.6254 54.8762 55.4357 54.914 55.2442 54.914C55.0527 54.914 54.863 54.8762 54.686 54.8029C54.509 54.7296 54.3482 54.6222 54.2128 54.4867L51.5997 51.8717L48.9866 54.4867C48.713 54.7603 48.342 54.914 47.9552 54.914C47.5683 54.914 47.1973 54.7603 46.9238 54.4867C46.6502 54.2132 46.4966 53.8421 46.4966 53.4553C46.4966 53.0684 46.6502 52.6974 46.9238 52.4238L49.5387 49.8106L46.9238 47.1974C46.6502 46.9238 46.4966 46.5528 46.4966 46.1659C46.4966 45.779 46.6502 45.408 46.9238 45.1345C47.1973 44.8609 47.5683 44.7072 47.9552 44.7072C48.342 44.7072 48.713 44.8609 48.9866 45.1345L51.5997 47.7495L54.2128 45.1345C54.4863 44.8609 54.8573 44.7072 55.2442 44.7072C55.631 44.7072 56.0021 44.8609 56.2756 45.1345C56.5491 45.408 56.7028 45.779 56.7028 46.1659C56.7028 46.5528 56.5491 46.9238 56.2756 47.1974L53.6607 49.8106L56.2756 52.4238ZM48.0408 36.1121C46.9147 40.1813 43.4269 43.6985 39.5619 44.6643C39.4462 44.6931 39.3275 44.7077 39.2083 44.708C38.8529 44.7074 38.5099 44.5769 38.2439 44.341C37.9779 44.1052 37.8073 43.7802 37.764 43.4274C37.7208 43.0745 37.808 42.718 38.0093 42.425C38.2105 42.1319 38.5118 41.9225 38.8566 41.836C41.7048 41.1235 44.3872 38.39 45.2345 35.3339C45.8158 33.2382 45.8213 30.0491 42.554 26.7871L42.124 26.3589V30.1293C42.124 30.516 41.9704 30.8868 41.697 31.1602C41.4236 31.4336 41.0528 31.5872 40.6661 31.5872C40.2795 31.5872 39.9087 31.4336 39.6353 31.1602C39.3619 30.8868 39.2083 30.516 39.2083 30.1293V22.84C39.2083 22.4533 39.3619 22.0825 39.6353 21.8091C39.9087 21.5357 40.2795 21.3821 40.6661 21.3821H47.9552C48.3418 21.3821 48.7126 21.5357 48.986 21.8091C49.2594 22.0825 49.413 22.4533 49.413 22.84C49.413 23.2266 49.2594 23.5974 48.986 23.8708C48.7126 24.1442 48.3418 24.2978 47.9552 24.2978H44.1849L44.6132 24.7243C47.937 28.05 49.1542 32.0938 48.0408 36.1121Z" fill="white"/>
</svg>
