<svg version="1.2" xmlns="http://www.w3.org/2000/svg" viewBox="0 0 79 78" width="79" height="78"><style>.a{fill:#fff}.b{fill:#c7175f}</style><path class="a" d="m0.3 15.6c0-8.6 7-15.6 15.6-15.6h46.6c8.6 0 15.6 7 15.6 15.6v46.6c0 8.6-7 15.6-15.6 15.6h-46.6c-8.6 0-15.6-7-15.6-15.6z"/><path fill-rule="evenodd" class="b" d="m32.9 45.2c1.2 1.2 1.9 2.9 1.9 4.6 0 1.3-0.3 2.6-1.1 3.7-0.7 1-1.7 1.9-2.9 2.4-1.2 0.5-2.5 0.6-3.8 0.3-1.3-0.2-2.4-0.8-3.4-1.8-0.9-0.9-1.5-2-1.8-3.3-0.2-1.3-0.1-2.6 0.4-3.8 0.5-1.2 1.4-2.2 2.4-2.9 1.1-0.8 2.4-1.1 3.7-1.1 1.7 0 3.4 0.6 4.6 1.9zm-3.2 8q0.6-0.3 1.2-0.8 0.5-0.5 0.7-1.2 0.3-0.7 0.3-1.4c0-0.7-0.2-1.4-0.6-2-0.4-0.6-1-1.1-1.6-1.4-0.7-0.2-1.4-0.3-2.1-0.2-0.7 0.2-1.4 0.5-1.9 1-0.5 0.5-0.9 1.2-1 1.9-0.1 0.7-0.1 1.4 0.2 2.1 0.3 0.7 0.8 1.2 1.4 1.6 0.5 0.4 1.3 0.7 2 0.7q0.7 0 1.4-0.3zm-7.6-18.3l2.7-2.6-2.7-2.6c-0.2-0.3-0.4-0.6-0.4-1 0-0.4 0.2-0.8 0.4-1.1 0.3-0.2 0.7-0.4 1.1-0.4 0.4 0 0.7 0.2 1 0.4l2.6 2.7 2.6-2.7c0.3-0.2 0.7-0.4 1.1-0.4 0.3 0 0.7 0.2 1 0.4 0.3 0.3 0.4 0.7 0.4 1.1 0 0.4-0.1 0.7-0.4 1l-2.6 2.6 2.6 2.6c0.3 0.3 0.4 0.7 0.4 1.1 0 0.3-0.1 0.7-0.4 1-0.3 0.3-0.7 0.4-1 0.4-0.4 0-0.8-0.1-1.1-0.4l-2.6-2.6-2.6 2.6c-0.3 0.3-0.6 0.4-1 0.4-0.4 0-0.8-0.1-1.1-0.4-0.2-0.3-0.4-0.7-0.4-1 0-0.4 0.2-0.8 0.4-1.1zm34.2 17.5q0.2 0.2 0.3 0.5 0.1 0.3 0.1 0.6 0 0.2-0.1 0.5-0.1 0.3-0.3 0.5-0.2 0.2-0.5 0.3-0.3 0.1-0.6 0.1-0.2 0-0.5-0.1-0.3-0.1-0.5-0.3l-2.6-2.6-2.6 2.6c-0.3 0.3-0.7 0.4-1 0.4-0.4 0-0.8-0.1-1.1-0.4-0.2-0.3-0.4-0.7-0.4-1 0-0.4 0.2-0.8 0.4-1.1l2.6-2.6-2.6-2.6c-0.2-0.3-0.4-0.6-0.4-1 0-0.4 0.2-0.8 0.4-1.1 0.3-0.2 0.7-0.4 1.1-0.4 0.3 0 0.7 0.2 1 0.4l2.6 2.6 2.6-2.6c0.3-0.2 0.7-0.4 1-0.4 0.4 0 0.8 0.2 1.1 0.4 0.2 0.3 0.4 0.7 0.4 1.1 0 0.4-0.2 0.7-0.4 1l-2.6 2.6zm-8.3-16.3c-1.1 4.1-4.6 7.6-8.5 8.6q-0.1 0-0.3 0c-0.4 0-0.7-0.1-1-0.4-0.2-0.2-0.4-0.5-0.5-0.9 0-0.3 0.1-0.7 0.3-1 0.2-0.3 0.5-0.5 0.8-0.6 2.9-0.7 5.6-3.4 6.4-6.5 0.6-2.1 0.6-5.3-2.7-8.5l-0.4-0.5v3.8c0 0.4-0.1 0.8-0.4 1-0.3 0.3-0.7 0.5-1 0.5-0.4 0-0.8-0.2-1.1-0.5-0.3-0.2-0.4-0.6-0.4-1v-7.3c0-0.4 0.1-0.7 0.4-1 0.3-0.3 0.7-0.4 1.1-0.4h7.2c0.4 0 0.8 0.1 1.1 0.4 0.2 0.3 0.4 0.6 0.4 1 0 0.4-0.2 0.8-0.4 1.1-0.3 0.2-0.7 0.4-1.1 0.4h-3.7l0.4 0.4c3.3 3.3 4.5 7.4 3.4 11.4z"/></svg>