<svg version="1.2" xmlns="http://www.w3.org/2000/svg" viewBox="0 0 78 78" width="78" height="78"><style>.a{fill:#fff}.b{fill:#c7175f}</style><path class="a" d="m0.1 15.6c0-8.6 7-15.6 15.6-15.6h46.6c8.6 0 15.6 7 15.6 15.6v46.6c0 8.6-7 15.6-15.6 15.6h-46.6c-8.6 0-15.6-7-15.6-15.6z"/><path fill-rule="evenodd" class="b" d="m59.4 26.9c0.7 0.6 1 1.4 1 2.3v25.9c0 0.8-0.3 1.7-1 2.3-0.6 0.6-1.4 0.9-2.3 0.9h-36.2c-0.8 0-1.7-0.3-2.3-0.9-0.6-0.6-1-1.5-1-2.3v-25.9c0-0.9 0.4-1.7 1-2.3 0.6-0.6 1.5-1 2.3-1h8.2v-1.6c0-1.3 0.6-2.5 1.5-3.4 0.9-0.9 2.2-1.5 3.5-1.5h9.9c1.3 0 2.5 0.6 3.4 1.5 1 0.9 1.5 2.1 1.5 3.4v1.6h8.2c0.9 0 1.7 0.4 2.3 1zm-27-1h13.2v-1.6c0-0.4-0.2-0.8-0.5-1.1-0.3-0.4-0.7-0.5-1.1-0.5h-9.9c-0.5 0-0.9 0.1-1.2 0.5-0.3 0.3-0.5 0.7-0.5 1.1zm-11.5 3.2v8.5c5.6 2.9 11.8 4.5 18.1 4.5 6.3 0 12.6-1.6 18.1-4.5v-8.5zm36.2 12.1c-5.6 2.7-11.8 4.1-18.1 4.1-6.3 0-12.5-1.4-18.1-4.1v13.9h36.2zm-23-4c0-0.4 0.1-0.9 0.4-1.2 0.4-0.3 0.8-0.4 1.2-0.4h6.6c0.4 0 0.8 0.1 1.2 0.4 0.3 0.3 0.4 0.8 0.4 1.2 0 0.4-0.1 0.8-0.4 1.1-0.4 0.3-0.8 0.5-1.2 0.5h-6.6c-0.4 0-0.8-0.2-1.2-0.5-0.3-0.3-0.4-0.7-0.4-1.1z"/></svg>