<svg width="78" height="78" viewBox="0 0 78 78" fill="none" xmlns="http://www.w3.org/2000/svg">
<rect x="0.139404" width="77.7532" height="77.7532" rx="15.5506" fill="#C7175F"/>
<path d="M57.1084 25.9179H48.8845V24.2981C48.8845 23.0092 48.3646 21.7732 47.4392 20.8618C46.5139 19.9505 45.2588 19.4385 43.9501 19.4385H34.0815C32.7728 19.4385 31.5177 19.9505 30.5924 20.8618C29.667 21.7732 29.1471 23.0092 29.1471 24.2981V25.9179H20.9232C20.0508 25.9179 19.2141 26.2592 18.5972 26.8668C17.9802 27.4744 17.6337 28.2984 17.6337 29.1576V55.0754C17.6337 55.9346 17.9802 56.7586 18.5972 57.3662C19.2141 57.9738 20.0508 58.3151 20.9232 58.3151H57.1084C57.9808 58.3151 58.8175 57.9738 59.4344 57.3662C60.0514 56.7586 60.3979 55.9346 60.3979 55.0754V29.1576C60.3979 28.2984 60.0514 27.4744 59.4344 26.8668C58.8175 26.2592 57.9808 25.9179 57.1084 25.9179ZM32.4367 24.2981C32.4367 23.8684 32.61 23.4564 32.9184 23.1526C33.2269 22.8489 33.6452 22.6782 34.0815 22.6782H43.9501C44.3864 22.6782 44.8047 22.8489 45.1132 23.1526C45.4216 23.4564 45.5949 23.8684 45.5949 24.2981V25.9179H32.4367V24.2981ZM57.1084 29.1576V37.5829C51.5568 40.559 45.3365 42.1176 39.0158 42.1165C32.6953 42.1176 26.4752 40.5597 20.9232 37.5849V29.1576H57.1084ZM57.1084 55.0754H20.9232V41.2337C26.5564 43.9473 32.7448 45.3574 39.0158 45.3562C45.2869 45.3563 51.4752 43.9456 57.1084 41.2316V55.0754ZM34.0815 37.2569C34.0815 36.8273 34.2548 36.4153 34.5632 36.1115C34.8717 35.8077 35.29 35.6371 35.7262 35.6371H42.3054C42.7416 35.6371 43.1599 35.8077 43.4684 36.1115C43.7769 36.4153 43.9501 36.8273 43.9501 37.2569C43.9501 37.6865 43.7769 38.0985 43.4684 38.4023C43.1599 38.7061 42.7416 38.8768 42.3054 38.8768H35.7262C35.29 38.8768 34.8717 38.7061 34.5632 38.4023C34.2548 38.0985 34.0815 37.6865 34.0815 37.2569Z" fill="white"/>
</svg>
