<svg width="19" height="22" viewBox="0 0 19 22" fill="none" xmlns="http://www.w3.org/2000/svg">
<path d="M18.5543 19.8718L11.9353 9.46875L18.4665 2.2835C18.6142 2.11698 18.6904 1.89894 18.6784 1.67666C18.6665 1.45438 18.5674 1.24577 18.4027 1.09606C18.2379 0.946349 18.0208 0.867604 17.7985 0.876896C17.5761 0.886188 17.3663 0.982769 17.2146 1.1457L10.9932 7.9894L6.71199 1.26096C6.63565 1.14079 6.53022 1.04183 6.40546 0.973251C6.2807 0.904674 6.14065 0.868696 5.99828 0.868652H0.923012C0.771347 0.868579 0.622452 0.909287 0.491918 0.986514C0.361384 1.06374 0.254012 1.17465 0.181047 1.30762C0.108081 1.44059 0.0722058 1.59073 0.0771767 1.74232C0.0821476 1.89392 0.127782 2.04139 0.209302 2.16929L6.8283 12.5713L0.297062 19.7618C0.220792 19.8437 0.161542 19.94 0.122745 20.045C0.0839486 20.15 0.0663772 20.2617 0.0710499 20.3735C0.0757225 20.4854 0.102546 20.5952 0.149966 20.6966C0.197386 20.798 0.264458 20.889 0.347297 20.9642C0.430135 21.0395 0.527092 21.0976 0.632547 21.1352C0.738002 21.1727 0.849858 21.1889 0.961632 21.1829C1.07341 21.1769 1.18288 21.1488 1.28369 21.1001C1.38451 21.0515 1.47468 20.9833 1.54896 20.8996L7.7704 14.0559L12.0516 20.7843C12.1286 20.9035 12.2343 21.0014 12.359 21.0691C12.4837 21.1367 12.6234 21.1719 12.7653 21.1714H17.8406C17.9921 21.1713 18.1408 21.1306 18.2712 21.0534C18.4015 20.9762 18.5088 20.8654 18.5817 20.7326C18.6547 20.5998 18.6906 20.4499 18.6858 20.2985C18.6809 20.147 18.6355 19.9997 18.5543 19.8718ZM13.2295 19.4795L2.46357 2.56054H5.52988L16.3 19.4795H13.2295Z" fill="#C7175F"/>
</svg>
