<svg width="26" height="21" viewBox="0 0 26 21" fill="none" xmlns="http://www.w3.org/2000/svg">
<path d="M17.0195 10.0027L11.5817 6.31131C11.4452 6.21856 11.2865 6.1653 11.1226 6.15721C10.9586 6.14913 10.7956 6.18652 10.6509 6.26539C10.5063 6.34427 10.3853 6.46167 10.301 6.60506C10.2168 6.74846 10.1723 6.91247 10.1724 7.07958V14.4624C10.1723 14.6295 10.2168 14.7935 10.301 14.9369C10.3853 15.0803 10.5063 15.1977 10.6509 15.2766C10.7956 15.3554 10.9586 15.3928 11.1226 15.3848C11.2865 15.3767 11.4452 15.3234 11.5817 15.2307L17.0195 11.5393C17.1438 11.455 17.2458 11.3408 17.3163 11.2068C17.3868 11.0727 17.4237 10.923 17.4237 10.771C17.4237 10.6189 17.3868 10.4692 17.3163 10.3352C17.2458 10.2012 17.1438 10.087 17.0195 10.0027ZM11.985 12.7378V8.80993L14.8829 10.771L11.985 12.7378ZM24.9371 4.02495C24.8304 3.59968 24.6259 3.20636 24.3405 2.87742C24.055 2.54849 23.6969 2.29336 23.2956 2.13311C19.4121 0.60579 13.2312 0.619633 12.8913 0.619633C12.5514 0.619633 6.37049 0.60579 2.487 2.13311C2.08569 2.29336 1.72756 2.54849 1.44214 2.87742C1.15673 3.20636 0.95221 3.59968 0.845464 4.02495C0.55205 5.1762 0.203125 7.2803 0.203125 10.771C0.203125 14.2617 0.55205 16.3658 0.845464 17.517C0.95205 17.9425 1.15649 18.336 1.44192 18.6652C1.72734 18.9943 2.08556 19.2496 2.487 19.41C6.20735 20.8716 12.0303 20.9223 12.8165 20.9223H12.9661C13.7523 20.9223 19.5787 20.8716 23.2956 19.41C23.697 19.2496 24.0553 18.9943 24.3407 18.6652C24.6261 18.336 24.8306 17.9425 24.9371 17.517C25.2306 16.3635 25.5795 14.2617 25.5795 10.771C25.5795 7.2803 25.2306 5.1762 24.9371 4.02495ZM23.1823 17.0602C23.1478 17.2017 23.0808 17.3329 22.9869 17.443C22.893 17.5531 22.7747 17.6389 22.6419 17.6935C19.0564 19.1032 12.9581 19.0778 12.8992 19.0778H12.8913C12.8301 19.0778 6.7364 19.1009 3.1486 17.6935C3.01579 17.6389 2.89757 17.5531 2.80364 17.443C2.70971 17.3329 2.64274 17.2017 2.60821 17.0602C2.33293 16.007 2.01572 14.0667 2.01572 10.771C2.01572 7.47526 2.33293 5.53496 2.60028 4.48753C2.63417 4.34516 2.70085 4.21304 2.79482 4.10212C2.88878 3.99119 3.00733 3.90463 3.14066 3.84961C6.59819 2.48956 12.3917 2.46533 12.8664 2.46533H12.897C12.9581 2.46533 19.0575 2.44457 22.6397 3.84961C22.7725 3.90419 22.8907 3.99004 22.9846 4.10012C23.0786 4.2102 23.1455 4.34138 23.1801 4.48291C23.4497 5.53496 23.7669 7.47526 23.7669 10.771C23.7669 14.0667 23.4497 16.007 23.1823 17.0544V17.0602Z" fill="#C7175F"/>
</svg>
